<svg width="17" height="19" viewBox="0 0 17 19" fill="none" xmlns="http://www.w3.org/2000/svg">
<path fill-rule="evenodd" clip-rule="evenodd" d="M16.2221 8.2536H1.36877C1.02377 8.2536 0.743774 7.9736 0.743774 7.6286C0.743774 7.2836 1.02377 7.0036 1.36877 7.0036H16.2221C16.5671 7.0036 16.8471 7.2836 16.8471 7.6286C16.8471 7.9736 16.5671 8.2536 16.2221 8.2536Z" fill="black"/>
<path fill-rule="evenodd" clip-rule="evenodd" d="M12.5009 11.508C12.1559 11.508 11.8726 11.228 11.8726 10.883C11.8726 10.538 12.1484 10.258 12.4934 10.258H12.5009C12.8459 10.258 13.1259 10.538 13.1259 10.883C13.1259 11.228 12.8459 11.508 12.5009 11.508Z" fill="black"/>
<path fill-rule="evenodd" clip-rule="evenodd" d="M8.80302 11.508C8.45802 11.508 8.17468 11.228 8.17468 10.883C8.17468 10.538 8.45052 10.258 8.79552 10.258H8.80302C9.14802 10.258 9.42802 10.538 9.42802 10.883C9.42802 11.228 9.14802 11.508 8.80302 11.508Z" fill="black"/>
<path fill-rule="evenodd" clip-rule="evenodd" d="M5.09743 11.508C4.75243 11.508 4.46826 11.228 4.46826 10.883C4.46826 10.538 4.74493 10.258 5.08993 10.258H5.09743C5.44243 10.258 5.72243 10.538 5.72243 10.883C5.72243 11.228 5.44243 11.508 5.09743 11.508Z" fill="black"/>
<path fill-rule="evenodd" clip-rule="evenodd" d="M12.5009 14.7469C12.1559 14.7469 11.8726 14.4669 11.8726 14.1219C11.8726 13.7769 12.1484 13.4969 12.4934 13.4969H12.5009C12.8459 13.4969 13.1259 13.7769 13.1259 14.1219C13.1259 14.4669 12.8459 14.7469 12.5009 14.7469Z" fill="black"/>
<path fill-rule="evenodd" clip-rule="evenodd" d="M8.80302 14.7469C8.45802 14.7469 8.17468 14.4669 8.17468 14.1219C8.17468 13.7769 8.45052 13.4969 8.79552 13.4969H8.80302C9.14802 13.4969 9.42802 13.7769 9.42802 14.1219C9.42802 14.4669 9.14802 14.7469 8.80302 14.7469Z" fill="black"/>
<path fill-rule="evenodd" clip-rule="evenodd" d="M5.09743 14.7469C4.75243 14.7469 4.46826 14.4669 4.46826 14.1219C4.46826 13.7769 4.74493 13.4969 5.08993 13.4969H5.09743C5.44243 13.4969 5.72243 13.7769 5.72243 14.1219C5.72243 14.4669 5.44243 14.7469 5.09743 14.7469Z" fill="black"/>
<path fill-rule="evenodd" clip-rule="evenodd" d="M12.1613 4.82581C11.8163 4.82581 11.5363 4.54581 11.5363 4.20081V1.45831C11.5363 1.11331 11.8163 0.833313 12.1613 0.833313C12.5063 0.833313 12.7863 1.11331 12.7863 1.45831V4.20081C12.7863 4.54581 12.5063 4.82581 12.1613 4.82581Z" fill="black"/>
<path fill-rule="evenodd" clip-rule="evenodd" d="M5.42944 4.82581C5.08444 4.82581 4.80444 4.54581 4.80444 4.20081V1.45831C4.80444 1.11331 5.08444 0.833313 5.42944 0.833313C5.77444 0.833313 6.05444 1.11331 6.05444 1.45831V4.20081C6.05444 4.54581 5.77444 4.82581 5.42944 4.82581Z" fill="black"/>
<mask id="mask0_1282_2" style="mask-type:alpha" maskUnits="userSpaceOnUse" x="0" y="2" width="17" height="17">
<path fill-rule="evenodd" clip-rule="evenodd" d="M0.666626 2.14923H16.9166V18.75H0.666626V2.14923Z" fill="white"/>
</mask>
<g mask="url(#mask0_1282_2)">
<path fill-rule="evenodd" clip-rule="evenodd" d="M5.2675 3.39925C3.10667 3.39925 1.91667 4.55175 1.91667 6.64425V14.1851C1.91667 16.3234 3.10667 17.5001 5.2675 17.5001H12.3158C14.4767 17.5001 15.6667 16.3451 15.6667 14.2484V6.64425C15.67 5.61508 15.3933 4.81508 14.8442 4.26508C14.2792 3.69842 13.4083 3.39925 12.3233 3.39925H5.2675ZM12.3158 18.7501H5.26746C2.42996 18.7501 0.666626 17.0009 0.666626 14.1851V6.64423C0.666626 3.8709 2.42996 2.14923 5.26746 2.14923H12.3233C13.7475 2.14923 14.925 2.5759 15.7291 3.38173C16.51 4.1659 16.9208 5.2934 16.9166 6.6459V14.2484C16.9166 17.0251 15.1533 18.7501 12.3158 18.7501Z" fill="black"/>
</g>
</svg>
